<svg width="256" height="256" viewBox="0 0 256 256" fill="none" xmlns="http://www.w3.org/2000/svg">
<path fill-rule="evenodd" clip-rule="evenodd" d="M128 24C107.431 24 87.3235 30.0995 70.2207 41.5272C53.118 52.9548 39.7881 69.1974 31.9166 88.2009C24.0451 107.204 21.9855 128.115 25.9984 148.289C30.0112 168.463 39.9163 186.994 54.4609 201.539C69.0056 216.084 87.5366 225.989 107.711 230.002C120.214 232.489 133.001 232.643 145.441 230.527C150.143 231.493 155.012 232 160 232C199.764 232 232 199.764 232 160C232 155.012 231.493 150.143 230.527 145.441C231.503 139.704 232 133.871 232 128C231.971 100.426 221.004 73.9905 201.507 54.4931C182.01 34.9956 155.574 24.0291 128 24ZM113.203 214.719C108.733 210.893 104.737 206.528 101.317 201.726L105.31 213C107.92 213.695 110.553 214.268 113.203 214.719ZM88 160C88 152.291 89.2115 144.865 91.4544 137.903L86.45 123.33C86.1358 123.276 85.8253 123.202 85.52 123.11L62.69 115.69C62.4929 115.627 62.2993 115.554 62.11 115.47L40.11 132.35C40.8485 147.668 45.6043 162.522 53.9 175.42H82.24C82.3804 175.175 82.534 174.938 82.7 174.71L88.3318 166.957C88.1123 164.668 88 162.347 88 160ZM160 88C170.939 88 181.308 90.4395 190.593 94.804L196.97 73.33C187.45 61.3507 174.983 52.0474 160.79 46.33L136 63.38V88.62L139.432 90.9806C145.949 89.0413 152.853 88 160 88ZM95.24 46.33L120 63.38V88.62L91.44 108.29C91.1166 108.133 90.7824 107.999 90.44 107.89L67.62 100.48C67.4401 100.417 67.252 100.37 67.0704 100.325L67.0701 100.325L67.01 100.31L59.01 73.37C68.5392 61.3691 81.024 52.0512 95.24 46.33ZM133.106 207.104C133.703 207.701 134.471 208 135.41 208H152.69C153.629 208 154.397 207.701 154.994 207.104C155.677 206.507 156.018 205.739 156.018 204.8V176.768H171.25C178.333 176.768 184.477 175.744 189.682 173.696C194.973 171.648 199.069 168.491 201.97 164.224C204.957 159.957 206.45 154.539 206.45 147.968C206.45 141.312 204.957 135.808 201.97 131.456C199.069 127.104 194.973 123.861 189.682 121.728C184.477 119.509 178.333 118.4 171.25 118.4H135.41C134.471 118.4 133.703 118.699 133.106 119.296C132.509 119.893 132.21 120.661 132.21 121.6V204.8C132.21 205.739 132.509 206.507 133.106 207.104ZM170.61 159.104H155.634V136.192H170.61C174.877 136.192 177.949 137.301 179.826 139.52C181.703 141.739 182.642 144.469 182.642 147.712C182.642 151.552 181.533 154.411 179.314 156.288C177.181 158.165 174.279 159.104 170.61 159.104Z" fill="white"/>
</svg>
