<svg width="256" height="256" viewBox="0 0 256 256" fill="none" xmlns="http://www.w3.org/2000/svg">
<path d="M128 24C107.431 24 87.3235 30.0995 70.2207 41.5272C53.118 52.9548 39.7881 69.1974 31.9166 88.2009C24.0451 107.204 21.9855 128.115 25.9984 148.289C30.0112 168.463 39.9163 186.994 54.4609 201.539C69.0056 216.084 87.5366 225.989 107.711 230.002C127.885 234.015 148.796 231.955 167.799 224.083C186.803 216.212 203.045 202.882 214.473 185.779C225.901 168.677 232 148.569 232 128C231.971 100.426 221.004 73.9905 201.507 54.4931C182.01 34.9956 155.574 24.0291 128 24ZM136 63.38L160.79 46.33C174.983 52.0474 187.45 61.3507 196.97 73.33L188.97 100.27C188.77 100.27 188.56 100.37 188.36 100.44L165.54 107.85C165.198 107.959 164.863 108.093 164.54 108.25L136 88.62V63.38ZM95.24 46.33L120 63.38V88.62L91.44 108.29C91.1166 108.133 90.7824 107.999 90.44 107.89L67.62 100.48C67.42 100.41 67.21 100.36 67.01 100.31L59.01 73.37C68.5392 61.3691 81.0241 52.0512 95.24 46.33ZM82.24 175.42H53.9C45.6043 162.522 40.8485 147.668 40.11 132.35L62.11 115.47C62.2993 115.554 62.4929 115.627 62.69 115.69L85.52 123.11C85.8253 123.202 86.1359 123.276 86.45 123.33L97.24 154.75C97.09 154.93 96.94 155.11 96.8 155.3L82.7 174.71C82.534 174.938 82.3804 175.175 82.24 175.42ZM150.69 213C135.823 216.96 120.178 216.96 105.31 213L95.25 184.6C95.38 184.44 95.52 184.29 95.64 184.12L109.75 164.7C109.916 164.475 110.07 164.242 110.21 164H145.79C145.93 164.242 146.084 164.475 146.25 164.7L160.36 184.12C160.48 184.29 160.62 184.44 160.75 184.6L150.69 213ZM173.76 175.39C173.62 175.145 173.466 174.908 173.3 174.68L159.19 155.3C159.05 155.11 158.9 154.93 158.75 154.75L169.54 123.33C169.854 123.276 170.165 123.202 170.47 123.11L193.3 115.69C193.497 115.627 193.691 115.554 193.88 115.47L215.88 132.35C215.142 147.668 210.386 162.522 202.09 175.42L173.76 175.39Z" fill="#FFFFFF"/>
</svg>
