<svg width="24" height="24" viewBox="0 0 24 24" fill="none" xmlns="http://www.w3.org/2000/svg">
<g clip-path="url(#clip0_719_92)">
<path d="M10.2857 7H9.14286C8.83975 7 8.54906 7.12041 8.33474 7.33474C8.12041 7.54906 8 7.83975 8 8.14286V15C8 15.3031 8.12041 15.5938 8.33474 15.8081C8.54906 16.0224 8.83975 16.1429 9.14286 16.1429H10.2857C10.5888 16.1429 10.8795 16.0224 11.0938 15.8081C11.3082 15.5938 11.4286 15.3031 11.4286 15V8.14286C11.4286 7.83975 11.3082 7.54906 11.0938 7.33474C10.8795 7.12041 10.5888 7 10.2857 7ZM14.8571 7H13.7143C13.4112 7 13.1205 7.12041 12.9062 7.33474C12.6918 7.54906 12.5714 7.83975 12.5714 8.14286V15C12.5714 15.3031 12.6918 15.5938 12.9062 15.8081C13.1205 16.0224 13.4112 16.1429 13.7143 16.1429H14.8571C15.1602 16.1429 15.4509 16.0224 15.6653 15.8081C15.8796 15.5938 16 15.3031 16 15V8.14286C16 7.83975 15.8796 7.54906 15.6653 7.33474C15.4509 7.12041 15.1602 7 14.8571 7Z" fill="#18122B"/>
</g>
<defs>
<clipPath id="clip0_719_92">
<rect width="24" height="24" fill="white"/>
</clipPath>
</defs>
</svg>
