<svg width="48" height="48" viewBox="0 0 48 48" fill="none" xmlns="http://www.w3.org/2000/svg">
<g clip-path="url(#clip0_719_100)">
<path d="M18 16V32C17.9999 32.1779 18.0474 32.3526 18.1374 32.5061C18.2274 32.6596 18.3567 32.7863 18.512 32.8731C18.6673 32.9599 18.843 33.0038 19.0209 33C19.1988 32.9963 19.3725 32.9452 19.524 32.852L32.524 24.852C32.6696 24.7625 32.7898 24.6372 32.8733 24.4881C32.9567 24.3389 33.0005 24.1709 33.0005 24C33.0005 23.8291 32.9567 23.661 32.8733 23.5119C32.7898 23.3627 32.6696 23.2374 32.524 23.148L19.524 15.148C19.3725 15.0547 19.1988 15.0036 19.0209 14.9999C18.843 14.9962 18.6673 15.04 18.512 15.1268C18.3567 15.2137 18.2274 15.3404 18.1374 15.4938C18.0474 15.6473 17.9999 15.822 18 16Z" fill="#18122B"/>
</g>
<defs>
<clipPath id="clip0_719_100">
<rect width="24" height="24" fill="white" transform="translate(12 12)"/>
</clipPath>
</defs>
</svg>
