<svg width="48" height="48" viewBox="0 0 48 48" fill="none" xmlns="http://www.w3.org/2000/svg">
<g clip-path="url(#clip0_719_105)">
<path d="M29 16H19C18.2044 16 17.4413 16.3161 16.8787 16.8787C16.3161 17.4413 16 18.2044 16 19V29C16 29.7956 16.3161 30.5587 16.8787 31.1213C17.4413 31.6839 18.2044 32 19 32H29C29.7956 32 30.5587 31.6839 31.1213 31.1213C31.6839 30.5587 32 29.7956 32 29V19C32 18.2044 31.6839 17.4413 31.1213 16.8787C30.5587 16.3161 29.7956 16 29 16Z" fill="#18122B"/>
</g>
<defs>
<clipPath id="clip0_719_105">
<rect width="24" height="24" fill="white" transform="translate(12 12)"/>
</clipPath>
</defs>
</svg>
